<?xml version="1.0" encoding="iso-8859-1"?>
<!-- Generator: Adobe Illustrator 19.0.0, SVG Export Plug-In . SVG Version: 6.00 Build 0)  -->
<svg version="1.1" id="Layer_1" xmlns="http://www.w3.org/2000/svg" xmlns:xlink="http://www.w3.org/1999/xlink" x="0px" y="0px"
	 viewBox="0 0 512 512" style="enable-background:new 0 0 512 512;" xml:space="preserve">
<g>
	<circle style="fill:#ECE5DD;" cx="256" cy="256" r="247.916"/>
	<circle style="fill:#ECE5DD;" cx="256" cy="256" r="247.916"/>
</g>
<path style="fill:#D9CBBD;" d="M503.916,256c0-69.097-28.279-131.582-73.881-176.541L288.337,191.326l-43.116,10.779
	l-140.126-97.011L69.12,93.103c-4.788,5.488-9.33,11.194-13.626,17.091l310.089,368.23C447.535,437.971,503.916,353.576,503.916,256
	z"/>
<path style="fill:#AC2201;" d="M503.916,256c0-54.903-17.86-105.626-48.068-146.708l-17.145,13.453v300.817
	C479.193,379.436,503.916,320.608,503.916,256z"/>
<path style="fill:#CD2900;" d="M411.07,62.58L262.126,175.239c-3.624,2.741-8.627,2.741-12.251,0L100.93,62.58
	c-17.158,13.773-32.441,29.781-45.414,47.584l194.216,152.382c3.68,2.888,8.856,2.888,12.536,0l194.216-152.382
	C443.512,92.36,428.228,76.354,411.07,62.58z"/>
<path style="fill:#AC2201;" d="M73.297,423.562V122.745l-17.145-13.453C25.944,150.374,8.084,201.097,8.084,256
	C8.084,320.608,32.807,379.436,73.297,423.562z"/>
<path d="M437.019,74.981C388.667,26.628,324.379,0,256,0S123.333,26.628,74.982,74.981C26.628,123.333,0,187.62,0,256
	s26.628,132.667,74.982,181.019C123.333,485.372,187.62,512,256,512s132.667-26.628,181.019-74.981
	C485.372,388.667,512,324.379,512,256S485.372,123.333,437.019,74.981z M256,16.168c53.148,0,102.304,17.389,142.103,46.759
	L256,170.411L113.897,62.927C153.696,33.557,202.852,16.168,256,16.168z M64.674,400.443C34.246,360.238,16.168,310.193,16.168,256
	c0-49.856,15.297-96.202,41.436-134.606l7.069,5.547V400.443z M349.349,194.769L349.349,194.769
	c2.892,2.892,7.489,3.169,10.707,0.644l71.102-55.788v280.013c-43.8,46.854-106.112,76.193-175.158,76.193
	s-131.358-29.339-175.158-76.193V139.625l170.167,133.513c1.465,1.149,3.227,1.725,4.991,1.725c1.763,0,3.526-0.575,4.991-1.725
	l67.859-53.242c3.815-2.993,4.155-8.648,0.727-12.077l0,0c-2.892-2.892-7.489-3.169-10.707-0.643L256,256.503L67.149,108.331
	c10.016-12.781,21.306-24.513,33.664-35.027l150.31,113.691c2.884,2.182,6.869,2.182,9.754,0L411.188,73.303
	c12.358,10.514,23.648,22.247,33.664,35.027l-94.777,74.362C346.26,185.686,345.92,191.34,349.349,194.769z M447.326,126.94
	l7.069-5.547c26.139,38.404,41.436,84.751,41.436,134.606c0,54.193-18.077,104.238-48.505,144.443V126.94z"/>
<g>
</g>
<g>
</g>
<g>
</g>
<g>
</g>
<g>
</g>
<g>
</g>
<g>
</g>
<g>
</g>
<g>
</g>
<g>
</g>
<g>
</g>
<g>
</g>
<g>
</g>
<g>
</g>
<g>
</g>
</svg>
